<?xml version="1.0" encoding="UTF-8"?>
<svg xmlns="http://www.w3.org/2000/svg" xmlns:xlink="http://www.w3.org/1999/xlink" width="20px" height="20px" viewBox="0 0 20 20" version="1.1">
  <title>1. 图标/2. 基础类/日期选择</title>
  <g id="-----🔨5.6-日期选择器-/-DatePicke-" stroke="none" strokeWidth="1" fill="none" fillRule="evenodd">
    <g id="4.4-分页器-Pagination" transform="translate(-735.000000, -558.000000)">
      <g id="8.-选择框/2.-时间选择器/1.-常规" transform="translate(484.000000, 549.000000)">
        <g id="1.-图标/2.-基础类/日期选择" transform="translate(251.964645, 9.964645)">
          <path d="M11.6560481,1.72682072 C11.9408199,1.72682072 12.1761663,1.93843613 12.2134131,2.2129928 L12.2185481,2.28932072 L12.2179665,3.30682072 L14.1852224,3.30758239 C15.272533,3.30758239 16.1633302,4.14895636 16.2420652,5.21615559 L16.2477224,5.37008239 L16.2477224,14.0932548 C16.2477224,15.2323421 15.3243097,16.1557548 14.1852224,16.1557548 L14.1852224,16.1557548 L3.83046652,16.1557548 C2.69137922,16.1557548 1.76796652,15.2323421 1.76796652,14.0932548 L1.76796652,14.0932548 L1.76796652,5.37008239 C1.76796652,4.23099509 2.69137922,3.30758239 3.83046652,3.30758239 L3.83046652,3.30758239 L5.84696652,3.30682072 L5.84785534,2.28932072 C5.84785534,1.97866055 6.09969517,1.72682072 6.41035534,1.72682072 C6.69512716,1.72682072 6.93047356,1.93843613 6.96772038,2.2129928 L6.97285534,2.28932072 L6.97196652,3.30682072 L11.0929665,3.30682072 L11.0935481,2.28932072 C11.0935481,1.97866055 11.3453879,1.72682072 11.6560481,1.72682072 Z M15.1219665,8.29382072 L2.89296652,8.29382072 L2.89296652,14.0932548 C2.89296652,14.5740384 3.2548792,14.9702928 3.72113421,15.0244476 L3.83046652,15.0307548 L14.1852224,15.0307548 C14.7029893,15.0307548 15.1227224,14.6110218 15.1227224,14.0932548 L15.1227224,14.0932548 L15.1219665,8.29382072 Z M5.84696652,4.43182072 L3.83046652,4.43258239 C3.31269957,4.43258239 2.89296652,4.85231543 2.89296652,5.37008239 L2.89296652,5.37008239 L2.89296652,7.16882072 L15.1219665,7.16882072 L15.1227224,5.37008239 C15.1227224,4.88929879 14.7608097,4.49304442 14.2945547,4.43888964 L14.1852224,4.43258239 L12.2179665,4.43182072 L12.2185481,5.45084406 C12.2185481,5.76150423 11.9667082,6.01334406 11.6560481,6.01334406 C11.3712762,6.01334406 11.1359298,5.80172865 11.098683,5.52717198 L11.0935481,5.45084406 L11.0929665,4.43182072 L6.97196652,4.43182072 L6.97285534,5.45084406 C6.97285534,5.76150423 6.72101551,6.01334406 6.41035534,6.01334406 C6.12558351,6.01334406 5.89023712,5.80172865 5.8529903,5.52717198 L5.84785534,5.45084406 L5.84696652,4.43182072 Z" id="日期选择" fill="#BFBFBF"></path>
          <rect id="codesign_placeholder_name" x="0.0353553391" y="0.0353553391" width="18" height="18"></rect>
        </g>
      </g>
    </g>
  </g>
</svg>
