<?xml version="1.0" encoding="UTF-8"?>
<svg xmlns="http://www.w3.org/2000/svg" xmlns:xlink="http://www.w3.org/1999/xlink" width="20px" height="20px" viewBox="0 0 20 20" version="1.1">
  <title>1. é€šç”¨/2. å›¾æ ‡/2. åŸºç¡€ç±»/å…³é—­/2</title>
  <g id="-----ðŸ”¨5.1-è¾“å…¥æ¡†-/-Input" stroke="none" stroke-width="1" fill="none" fill-rule="evenodd">
    <g id="5.1-è¾“å…¥æ¡†-/-Input" transform="translate(-393.000000, -1308.000000)">
      <g id="è¾“å…¥æ¡†æœç´¢" transform="translate(80.000000, 1140.000000)">
        <g id="çŸ©å½¢" transform="translate(66.000000, 159.000000)">
          <g id="1.-é€šç”¨/2.-å›¾æ ‡/2.-åŸºç¡€ç±»/å…³é—­/2" transform="translate(247.964645, 9.964645)">
            <circle id="å½¢çŠ¶ç»“åˆ" fill="#F0F0F0" cx="9.03535534" cy="9.03535534" r="9"></circle>
            <path d="M5.86718705,5.04314841 L5.93024633,5.09764623 L9.06840272,8.23967799 L12.1780009,5.13431983 C12.39779,4.9147691 12.7539452,4.91496228 12.9734959,5.13475132 C13.1730875,5.33455953 13.1910725,5.64706709 13.0275623,5.86718705 L12.9730644,5.93024633 L9.86340272,9.03567799 L13.1030907,12.2782762 C13.3226415,12.4980652 13.3224483,12.8542205 13.1026592,13.0737712 C12.902851,13.2733628 12.5903435,13.2913478 12.3702235,13.1278376 L12.3071642,13.0733397 L9.06740272,9.83067799 L5.79243448,13.1030907 C5.57264544,13.3226415 5.21649019,13.3224483 4.99693947,13.1026592 C4.79734789,12.902851 4.77936286,12.5903435 4.94287313,12.3702235 L4.99737095,12.3071642 L8.27240272,9.03467799 L5.13431983,5.89270975 C4.9147691,5.67292072 4.91496228,5.31676547 5.13475132,5.09721474 C5.33455953,4.89762317 5.64706709,4.87963814 5.86718705,5.04314841 Z" id="å½¢çŠ¶ç»“åˆ" fill="#262626"></path>
            <rect id="codesign_placeholder_name" x="0.0353553391" y="0.0353553391" width="18" height="18"></rect>
          </g>
        </g>
      </g>
    </g>
  </g>
</svg>
