<svg xmlns="http://www.w3.org/2000/svg" xmlns:xlink="http://www.w3.org/1999/xlink" viewBox="0 0 180 160" class="design-iconfont">
  <defs>
    <linearGradient x1="76.2168958%" y1="47.5119672%" x2="9.75539701%" y2="51.5237736%" id="tcxl4y24a__t760mdzusa">
      <stop stop-color="#F2F2F2" offset="0%"/>
      <stop stop-color="#F7F7F7" offset="100%"/>
    </linearGradient>
    <linearGradient x1="50%" y1="7.09078572%" x2="50%" y2="82.042705%" id="tcxl4y24a__p3l8ql3nub">
      <stop stop-color="#E8E8E8" offset="0%"/>
      <stop stop-color="#FFF" offset="100%"/>
    </linearGradient>
    <linearGradient x1="50%" y1="7.09078572%" x2="50%" y2="82.042705%" id="tcxl4y24a__nj21c5ab4c">
      <stop stop-color="#F8F8F8" offset="0%"/>
      <stop stop-color="#FFF" offset="100%"/>
    </linearGradient>
    <linearGradient x1="76.2168958%" y1="47.5119672%" x2="9.75539701%" y2="51.5237736%" id="tcxl4y24a__9nn581aifd">
      <stop stop-color="#F2F2F2" offset="0%"/>
      <stop stop-color="#F7F7F7" offset="100%"/>
    </linearGradient>
    <linearGradient x1="50%" y1="7.09078572%" x2="50%" y2="82.042705%" id="tcxl4y24a__4bav08ur5e">
      <stop stop-color="#E8E8E8" offset="0%"/>
      <stop stop-color="#FFF" offset="100%"/>
    </linearGradient>
    <linearGradient x1="50%" y1="7.09078572%" x2="50%" y2="82.042705%" id="tcxl4y24a__d08f8ht7wf">
      <stop stop-color="#F8F8F8" offset="0%"/>
      <stop stop-color="#FFF" offset="100%"/>
    </linearGradient>
    <linearGradient x1="50%" y1="7.09078572%" x2="50%" y2="82.042705%" id="tcxl4y24a__aaxvf9e7dg">
      <stop stop-color="#E8E8E8" offset="0%"/>
      <stop stop-color="#FFF" offset="100%"/>
    </linearGradient>
    <linearGradient x1="50%" y1="7.09078572%" x2="50%" y2="82.042705%" id="tcxl4y24a__sihxmwxgdh">
      <stop stop-color="#E8E8E8" offset="0%"/>
      <stop stop-color="#FFF" offset="100%"/>
    </linearGradient>
    <linearGradient x1="76.2168958%" y1="47.5119672%" x2="9.75539701%" y2="51.5237736%" id="tcxl4y24a__vqizca8vxi">
      <stop stop-color="#F2F2F2" offset="0%"/>
      <stop stop-color="#F7F7F7" offset="100%"/>
    </linearGradient>
    <linearGradient x1="50%" y1="7.09078572%" x2="50%" y2="82.042705%" id="tcxl4y24a__fs9e44aqcj">
      <stop stop-color="#E8E8E8" offset="0%"/>
      <stop stop-color="#FFF" offset="100%"/>
    </linearGradient>
    <linearGradient x1="50%" y1="7.09078572%" x2="50%" y2="82.042705%" id="tcxl4y24a__bjyskzicyk">
      <stop stop-color="#F8F8F8" offset="0%"/>
      <stop stop-color="#FFF" offset="100%"/>
    </linearGradient>
    <linearGradient x1="31.7945863%" y1="50%" x2="96.1335192%" y2="50%" id="tcxl4y24a__msfecc01tl">
      <stop stop-color="#D0D0D0" stop-opacity="0" offset="0%"/>
      <stop stop-color="#353535" offset="100%"/>
    </linearGradient>
    <linearGradient x1="50%" y1="0%" x2="50%" y2="95.9229934%" id="tcxl4y24a__u9c9tyzmun">
      <stop stop-color="#F0F0F0" offset="0%"/>
      <stop stop-color="#F0F0F0" stop-opacity=".7" offset="86.1349965%"/>
      <stop stop-color="#F0F0F0" stop-opacity="0" offset="100%"/>
    </linearGradient>
    <linearGradient x1="50%" y1="7.59644888%" x2="50%" y2="93.5538955%" id="tcxl4y24a__yto5hwo6do">
      <stop stop-color="#D9D9D9" offset="0%"/>
      <stop stop-color="#D9D9D9" stop-opacity=".70302086" offset="85.2855411%"/>
      <stop stop-color="#D9D9D9" stop-opacity="0" offset="100%"/>
    </linearGradient>
    <linearGradient x1="39.2998306%" y1="8.29480404%" x2="39.2998306%" y2="95.4823441%" id="tcxl4y24a__omw5fgfgwq">
      <stop stop-color="#FFF" offset="0%"/>
      <stop stop-color="#F7F7F7" offset="100%"/>
    </linearGradient>
    <linearGradient x1="50%" y1="40.1548577%" x2="57.1403172%" y2="58.5711222%" id="tcxl4y24a__1di07vn13s">
      <stop stop-color="#E1E1E1" offset="0%"/>
      <stop stop-color="#BCBCBC" offset="100%"/>
    </linearGradient>
    <linearGradient x1="62.8613818%" y1="72.3297363%" x2="29.6553594%" y2="27.5390218%" id="tcxl4y24a__zvyitq4c1v">
      <stop stop-color="#EEE" stop-opacity="0" offset="0%"/>
      <stop stop-color="#D8D8D8" offset="100%"/>
    </linearGradient>
    <linearGradient x1="73.3936178%" y1="69.5322996%" x2="12.9950535%" y2="30.3529003%" id="tcxl4y24a__8y0uhg5cvw">
      <stop stop-color="#EEE" stop-opacity="0" offset="0%"/>
      <stop stop-color="#D8D8D8" offset="100%"/>
    </linearGradient>
    <filter x="-5.3%" y="-51.5%" width="110.7%" height="203%" filterUnits="objectBoundingBox" id="tcxl4y24a__z80q3xgeum">
      <feGaussianBlur stdDeviation=".73865285" in="SourceGraphic"/>
    </filter>
    <filter x="-18.1%" y="-14.3%" width="136.3%" height="128.7%" filterUnits="objectBoundingBox" id="tcxl4y24a__fx845w6x0p">
      <feGaussianBlur stdDeviation="3.69326425" in="SourceGraphic"/>
    </filter>
    <filter x="-10.1%" y="-40.8%" width="120.2%" height="181.5%" filterUnits="objectBoundingBox" id="tcxl4y24a__a615zensft">
      <feGaussianBlur stdDeviation="1.23108808" in="SourceGraphic"/>
    </filter>
    <path d="M37.9697822,0 L37.8998951,0.00184209494 C37.7838656,0.00797159931 37.670235,0.0293437738 37.5613074,0.0651477099 L37.5129942,0.0822561902 L0,10.0287882 L0.115305187,10.5074023 C0.171826113,10.4951401 0.229680202,10.4888951 0.28839198,10.4888951 C0.418394987,10.4888951 0.546662279,10.5200464 0.662338613,10.5796831 L1.59688971,11.0606507 C1.89336169,11.2134197 2.07962514,11.5187758 2.07962514,11.852202 L2.07962514,21.4203428 C2.07962514,22.2362362 2.74103743,22.8976485 3.55693084,22.8976485 C3.68480596,22.8976485 3.8121399,22.8810456 3.93573962,22.848256 L38.9718709,13.5535773 C39.7274049,13.3531429 40.2534506,12.669347 40.2534506,11.8876786 L40.2534506,1.85549596 L40.2534506,1.85549596 C40.2534506,1.33776095 39.9640233,0.863280402 39.5036186,0.626338212 L38.5692659,0.14525118 C38.384113,0.0497958921 38.1785016,0 37.9697822,0 Z" id="tcxl4y24a__ymo1irk0gr"/>
  </defs>
  <g fill="none" fill-rule="evenodd">
    <path d="M70.3092152,33.8152718 L70.3092152,33.8962774 L67.2081043,34.7188659 L67.2081043,33.2696536 C67.2081043,32.9758913 67.3270274,32.7099763 67.5195696,32.5174588 C67.6382465,32.3987819 67.784746,32.307903 67.9484807,32.2557048 C67.980489,32.2456345 68.0132359,32.2367707 68.0464753,32.229852 C68.1191095,32.2141187 68.1944521,32.2057473 68.2717644,32.2057473 C68.4411621,32.2057473 68.6080977,32.2463485 68.7585366,32.3239317 L69.6929325,32.8047947 C70.071369,32.9997991 70.3092152,33.3895616 70.3092152,33.8152718 Z" stroke="#EFEFEF" stroke-width=".66" fill="#BABABA"/>
    <g opacity=".80000001">
      <path fill="url(#tcxl4y24a__t760mdzusa)" d="M0 3.05619166L9.00947679 5.44785186 17.3019311 2.43207222 9.00947679 3.02416528e-16z" transform="translate(151.027595 76.497416)"/>
      <path fill="url(#tcxl4y24a__p3l8ql3nub)" d="M9.00947679 5.44785186L9.00947679 26.8869637 17.3019311 23.1134933 17.3019311 2.43207222z" transform="translate(151.027595 76.497416)"/>
      <path fill="url(#tcxl4y24a__nj21c5ab4c)" d="M0 3.05619166L9.00947679 5.44785186 9.00947679 26.8869637 0 24.2253483z" transform="translate(151.027595 76.497416)"/>
    </g>
    <g opacity=".40000001">
      <path fill="url(#tcxl4y24a__9nn581aifd)" d="M0 4.27866832L12.6132675 7.6269926 24.2227036 3.40490111 12.6132675 4.2338314e-16z" transform="translate(124.892293 55.726612)"/>
      <path fill="url(#tcxl4y24a__4bav08ur5e)" d="M12.6132675 7.6269926L12.6132675 37.6417492 24.2227036 32.3588907 24.2227036 3.40490111z" transform="translate(124.892293 55.726612)"/>
      <path fill="url(#tcxl4y24a__d08f8ht7wf)" d="M0 4.27866832L12.6132675 7.6269926 12.6132675 37.6417492 0 33.9154876z" transform="translate(124.892293 55.726612)"/>
    </g>
    <path d="M40.3196381,44.4006016 C44.4753419,44.4006016 48.1082993,46.6387455 50.0788658,49.9753891 C54.2566038,50.1312744 57.5960686,53.5673067 57.5960686,57.7833127 C57.5960686,62.0981499 54.098202,65.5960165 49.7833649,65.5960165 C48.7302754,65.5960165 47.72585,65.387661 46.8090632,65.0099247 C44.971612,66.2972793 42.7338349,67.0526223 40.3196381,67.0526223 C38.5717509,67.0526223 36.9163398,66.6566857 35.4382006,65.9496087 C34.1323505,66.6534843 32.6379513,67.0526223 31.0503285,67.0526223 C25.9310302,67.0526223 21.7810189,62.902611 21.7810189,57.7833127 C21.7810189,52.6640144 25.9310302,48.5140032 31.0503285,48.5140032 C31.2262529,48.5140032 31.4010326,48.5189041 31.5745385,48.5285769 C33.6515282,46.0079876 36.7978706,44.4006016 40.3196381,44.4006016 Z" fill="url(#tcxl4y24a__aaxvf9e7dg)" opacity=".5"/>
    <path d="M153.528375,98.7441982 C156.870945,98.7441982 159.793061,100.544379 161.378101,103.228119 C164.738004,103.353098 167.424634,106.117078 167.424634,109.508553 C167.424634,112.979183 164.611133,115.792684 161.140503,115.792684 C160.369252,115.792684 159.630451,115.653746 158.947766,115.399533 L158.748662,115.321238 C157.270305,116.356701 155.470297,116.964302 153.528375,116.964302 C152.122317,116.964302 150.790658,116.645764 149.601625,116.076915 C148.550818,116.643477 147.349188,116.964302 146.072626,116.964302 C141.954929,116.964302 138.616877,113.626249 138.616877,109.508553 C138.616877,105.390856 141.954929,102.052804 146.072626,102.052804 C146.214173,102.052804 146.354798,102.056748 146.494399,102.064533 C148.165353,100.036862 150.695905,98.7441982 153.528375,98.7441982 Z" fill="url(#tcxl4y24a__sihxmwxgdh)" opacity=".5"/>
    <path fill="url(#tcxl4y24a__vqizca8vxi)" d="M0 6.11238332L18.0189536 10.8957037 34.6038622 4.86414444 18.0189536 6.04833057e-16z" transform="translate(11.762515 85.027358)"/>
    <path fill="url(#tcxl4y24a__fs9e44aqcj)" d="M18.0189536 10.8957037L18.0189536 53.7739275 34.6038622 46.2269867 34.6038622 4.86414444z" transform="translate(11.762515 85.027358)"/>
    <path fill="url(#tcxl4y24a__bjyskzicyk)" d="M0 6.11238332L18.0189536 10.8957037 18.0189536 53.7739275 0 48.4506966z" transform="translate(11.762515 85.027358)"/>
    <path fill="url(#tcxl4y24a__msfecc01tl)" opacity=".2" filter="url(#tcxl4y24a__z80q3xgeum)" d="M106.129293 130.14841457A20.7891901 2.15080643 0 1 0 106.129293 134.45002742999998A20.7891901 2.15080643 0 1 0 106.129293 130.14841457Z"/>
    <path d="M54.7855275,37.6503832 L116.678775,21.5915321 C117.658483,21.3373365 118.695684,21.4261405 119.617922,21.8431786 L121.627287,22.7518179 C122.832017,23.2965997 123.60617,24.4962986 123.60617,25.8184796 L123.60617,25.8184796 L123.60617,25.8184796 L123.60617,116.706895 L52.9417137,135.781247 L52.9417137,40.0336456 C52.9417137,38.9119813 53.699813,37.9320832 54.7855275,37.6503832 Z" fill="url(#tcxl4y24a__u9c9tyzmun)"/>
    <path d="M56.7637749,39.2979673 L120.534138,22.9946788 C121.851587,22.6578647 123.192633,23.4528267 123.529447,24.7702762 C123.580395,24.9695587 123.60617,25.1744401 123.60617,25.3801321 L123.60617,118.34964 L123.60617,118.34964 L54.9114547,137.423991 L54.9114547,41.6834206 C54.9114547,40.5584854 55.6738934,39.5766023 56.7637749,39.2979673 Z" fill="url(#tcxl4y24a__yto5hwo6do)"/>
    <path d="M63.5201772,59.3312249 C63.5201772,70.5756555 63.5201772,81.8200861 63.5201772,93.0645166 C63.5201772,103.131861 67.3231815,113.338196 74.9291903,123.683524 L124.618704,110.672384 C117.675753,100.339513 113.856922,90.805268 113.162211,82.0696491 C112.769747,77.1346163 112.501249,71.1898403 112.356716,64.2353211 C112.284405,60.7558555 112.246679,55.0123408 112.243539,47.0047772 C112.242353,46.7328153 112.020927,46.5133042 111.748965,46.5144854 C111.708081,46.514663 111.667378,46.5199315 111.627781,46.5301137 L63.8895191,58.8544225 C63.6720923,58.9105544 63.5201772,59.1066693 63.5201772,59.3312249 Z" fill="#AFAFAF" opacity=".2" filter="url(#tcxl4y24a__fx845w6x0p)"/>
    <path d="M59.8741883,44.9050406 C59.8741883,58.7897649 59.8741883,72.6744891 59.8741883,86.5592134 C59.8741883,101.911086 64.5601877,114.487165 73.9321863,124.28745 L135.158786,108.255338 C126.380821,96.142367 121.67532,84.3944275 121.042284,73.0115188 C120.297581,59.6206614 119.920252,45.1686745 119.910298,29.6555584 C119.908647,29.3835989 119.68685,29.1644627 119.414891,29.1661041 C119.3754,29.1663424 119.336082,29.1713302 119.298157,29.1824494 L60.2435303,44.4282382 C60.0261034,44.48437 59.8741883,44.680485 59.8741883,44.9050406 Z" fill="url(#tcxl4y24a__omw5fgfgwq)"/>
    <g transform="translate(67.983377 21.963077)">
      <mask id="tcxl4y24a__4bteu4825u" fill="#fff">
        <use xlink:href="#tcxl4y24a__ymo1irk0gr"/>
      </mask>
      <use fill="url(#tcxl4y24a__1di07vn13s)" fill-rule="nonzero" xlink:href="#tcxl4y24a__ymo1irk0gr"/>
      <path stroke="#FFF" stroke-width=".98487047" filter="url(#tcxl4y24a__a615zensft)" mask="url(#tcxl4y24a__4bteu4825u)" d="M2.32583783 11.4992294L40.2534506 1.27436101"/>
    </g>
    <path d="M68.2717644,31.9595198 C68.4571255,31.9595198 68.640196,31.9989911 68.8087142,32.0748479 L68.8712024,32.1049937 L69.8057133,32.585916 C70.2484348,32.8140457 70.5329266,33.2612945 70.5541557,33.755716 L70.5554328,33.815262 C70.5545814,37.6309403 70.5545814,41.0660593 70.5554328,44.1206189 C70.5554328,44.5216871 70.9140455,44.7812462 71.2639491,44.8215415 C71.4972181,44.848405 71.6904851,44.8519157 71.8437501,44.8320735 L71.1806234,44.9222828 C70.6416586,44.9956016 70.1453047,44.6181209 70.0719859,44.0791561 C70.0660005,44.0351575 70.0629976,43.9908045 70.0629976,43.9464007 L70.0629976,33.815262 L70.0629976,33.815262 C70.0629976,33.4993844 69.8958248,33.2087001 69.6261504,33.049084 L69.5802667,33.023713 L68.645711,32.5427677 C68.5300072,32.4831168 68.4017366,32.451955 68.2717644,32.451955 C68.2326691,32.451955 68.1939253,32.4547347 68.1556721,32.4602256 L68.0986776,32.4704868 L67.994273,31.9892466 C68.0850284,31.9695573 68.1778755,31.9595198 68.2717644,31.9595198 Z" fill="#EFEFEF" fill-rule="nonzero"/>
    <path fill="url(#tcxl4y24a__zvyitq4c1v)" d="M64.6658891 54.8089528L64.6658891 64.7973684 74.0991016 62.2930501 74.0991016 52.0751017z"/>
    <path fill="url(#tcxl4y24a__zvyitq4c1v)" d="M64.6658891 69.8282274L64.6658891 79.816643 74.0991016 77.3123248 74.0991016 67.0943763z"/>
    <path d="M116.194545,62.3013794 L116.194545,66.3953409 L78.1123405,76.4974164 L78.1123405,72.4433466 L116.194545,62.3013794 Z M116.194545,55.1610685 L116.194545,59.25503 L78.1123405,69.3571055 L78.1123405,65.3030357 L116.194545,55.1610685 Z M116.194545,48.0207576 L116.194545,52.1147191 L78.1123405,62.2167947 L78.1123405,58.1627248 L116.194545,48.0207576 Z M116.194545,40.8804467 L116.194545,44.9744082 L78.1123405,55.0764838 L78.1123405,51.0224139 L116.194545,40.8804467 Z" fill="url(#tcxl4y24a__8y0uhg5cvw)"/>
    <g>
      <path d="M7.05182826,23.6216346 C7.05182826,23.6216346 4.11826026,21.0508026 1.19102826,21.1014906 C-1.73620374,21.1521786 1.65355626,22.3686906 1.65355626,22.3686906 C1.65355626,22.3686906 1.19102826,25.3276026 5.77195626,25.4828346" fill="#FCB" fill-rule="nonzero" transform="translate(96.682552 58.688932)"/>
      <path d="M26.6934283,67.7708826 L27.2003083,71.3697306 C27.2440526,71.68127 27.1464741,71.9960767 26.9341963,72.2282586 L26.1596203,73.0772826 C26.0705856,73.1751376 26.0476513,73.3163005 26.1011281,73.4373088 C26.1546048,73.558317 26.2744262,73.6364346 26.4067243,73.6364346 L28.3360363,73.6364346 C28.6235007,73.6361104 28.8986505,73.5197035 29.0990657,73.3136217 C29.2994809,73.10754 29.4081729,72.8292525 29.4004843,72.5418906 L29.2626763,67.5427866" fill="#FCB" fill-rule="nonzero" transform="translate(96.682552 58.688932)"/>
      <path d="M28.7922283,10.1766426 C29.2985299,9.38939704 29.5654094,8.47210216 29.5604683,7.53611465 C29.5604683,5.04606665 27.7467883,3.02805065 25.5085963,3.02805065 C23.9784523,3.02805065 22.6478923,3.97845065 21.9588523,5.36286665 L20.6742283,7.80539465 C20.5849529,7.97714887 20.572785,8.17872731 20.6407522,8.35997318 C20.7087194,8.54121905 20.8504317,8.6850924 21.0306283,8.75579465 L21.0401323,8.75579465 C21.3205684,8.86463881 21.5228455,9.11327098 21.5723563,9.40998665 C21.6564714,9.91648641 21.3125375,10.7691894 21.5723563,11.1530847 C21.7675617,11.4415106 22.517662,11.2922586 22.8601483,11.4913626 C23.3710334,11.7882231 23.7063747,12.3142603 23.7598603,12.9027066 L23.9958763,15.5099706 L29.5683883,14.3631546 C27.3903883,12.7744026 28.7922283,10.1782266 28.7922283,10.1766426 Z" fill="#FCB" fill-rule="nonzero" transform="translate(96.682552 58.688932)"/>
      <path d="M24.9044247,8.81878832 C25.2489748,8.22640011 25.5035572,7.89904545 25.6891723,7.77846665 C27.0694944,6.88178507 27.1021003,8.90310665 26.4098923,9.47968265 C25.7176843,10.0562586 25.0856683,11.3646426 26.8296523,11.0367546 C28.5736363,10.7088666 28.3724683,11.3836506 28.6306603,11.0652666 C28.8888523,10.7468826 28.7066923,9.65709065 31.1397163,7.26366665 C32.4766123,5.94577865 25.7794603,-1.92353335 22.8664843,0.439794648 C19.9535083,2.80312265 21.7370923,4.69600265 23.1215083,5.87925065 C24.0590933,6.68059622 24.2632474,7.1464762 24.1314783,8.22640011 C23.9997091,9.30632401 24.5598746,9.41117654 24.9044247,8.81878832 Z" fill="#262626" fill-rule="nonzero" transform="translate(96.682552 58.688932)"/>
      <path d="M32.5162123,33.2571066 C32.5162123,33.2571066 29.2626763,51.1008666 29.2626763,67.7708826 L26.6934283,67.7708826 C26.6934283,67.7708826 22.9425163,42.8498106 24.6960043,36.4963866 C26.4494923,30.1429626 32.5162123,33.2571066 32.5162123,33.2571066 Z" fill="#262626" fill-rule="nonzero" transform="translate(96.682552 58.688932)"/>
      <path d="M28.1412043,35.0707866 C28.1412043,35.0707866 23.5856203,51.1008666 23.5856203,67.7724666 L21.0147883,67.7724666 C21.0147883,67.7724666 17.8309483,42.2859066 19.5891883,35.9340666 C21.3474283,29.5822266 28.1412043,35.0707866 28.1412043,35.0707866 Z" fill="#414141" fill-rule="nonzero" transform="translate(96.682552 58.688932)"/>
      <path d="M6.03762202,2.61318784 L3.70623503,1.49072106 C2.72098788,1.01636515 1.53774582,1.43052433 1.06338991,2.41577148 C1.02906259,2.48707004 0.999040496,2.5603624 0.973485183,2.63525416 L0.88847111,2.88439426 C0.658320514,3.55886779 1.01851542,4.29221054 1.69298895,4.52236114 C1.86079286,4.57962086 2.03859667,4.6016846 2.21530637,4.58717568 L2.21530637,4.58717568 L2.21530637,4.58717568 C2.10838894,4.75996991 2.17852065,4.88644876 2.42570152,4.96661225 C2.79647281,5.08685748 3.5343303,4.99218564 4.40509268,4.75425085 C4.98560094,4.59562766 5.51609574,4.43878821 5.99657709,4.2837325 L6.03762202,2.61318784 Z" fill="#FCB" transform="rotate(15 -171.71090622 502.49455213)"/>
      <path d="M6.34266459,2.35685073 C6.64924543,1.82111857 7.31388464,1.60775065 7.87501693,1.86491075 C10.0955198,2.88260582 12.1825049,4.24461284 14.1359722,5.95093182 C17.2278834,8.65166136 16.4021222,12.2368329 14.0127765,13.8311601 C12.8798558,14.5871186 10.5907986,15.9705781 7.14560475,17.9815384 L2.89895419,8.01489176 C3.68988073,8.2149915 4.43621087,8.47125736 5.13794461,8.78368935 C7.39847728,9.79014334 9.34213216,9.18811699 9.69243471,7.92765277 C9.92530135,7.08974829 8.90730041,5.75607037 6.63843188,3.92661898 C6.16764064,3.54704786 6.04229522,2.88172868 6.34266459,2.35685073 Z" fill="#FFBE5F" transform="rotate(-7 586.56675652 -958.96505763)"/>
      <path d="M27.0102283,13.0753626 C20.4017803,13.4776986 20.0897323,19.8422106 20.0897323,19.8422106 C18.7116523,30.5991546 18.5675083,36.8714266 18.6150283,39.4976986 C18.6179265,39.6493684 18.681305,39.7935932 18.7910699,39.8983012 C18.9008349,40.0030092 19.0484811,40.030547 19.1995243,40.0552666 C21.0825942,40.363448 21.9751819,40.5870084 24.5701793,40.8969754 C28.4952871,41.3658214 32.311297,40.7908634 32.5162123,39.8983012 C35.9074876,26.3325934 33.8024203,12.6619386 27.0102283,13.0753626 Z" fill="#FFA21A" fill-rule="nonzero" transform="translate(96.682552 58.688932)"/>
      <path d="M21.8099563,15.5194746 C21.8099563,15.5194746 20.2449643,17.1399066 17.3113963,23.7784506 C14.5948363,29.9259546 12.2093323,29.7184506 7.33219626,23.8909146 C6.31368426,22.6728186 4.32259626,23.8037946 4.90709226,25.2784986 C4.92293226,25.3186266 4.94035626,25.3587546 4.95936426,25.3988826 C5.73077226,27.0193146 11.2288363,36.8987226 19.0569643,34.1980026 C26.8850923,31.4972826 30.3999883,14.3615706 21.8099563,15.5194746 Z" fill="#FFBE5F" fill-rule="nonzero" transform="translate(96.682552 58.688932)"/>
      <path d="M21.0147883,67.7708826 L21.3537643,71.1384666 C21.3942777,71.5401854 21.2263179,71.9346819 20.9086603,72.1839066 L19.8410443,73.0218426 C19.7253449,73.1122341 19.6798335,73.2661347 19.7277625,73.4049142 C19.7756915,73.5436937 19.9064777,73.636708 20.0533003,73.6364352 L22.7223403,73.6364352 C23.0475823,73.636737 23.358369,73.5020716 23.5805657,73.2645614 C23.8027623,73.0270511 23.9164466,72.7079916 23.8945003,72.3834906 L23.5856203,67.7708826" fill="#FCB" fill-rule="nonzero" transform="translate(96.682552 58.688932)"/>
    </g>
    <g fill="#FFA21A" fill-rule="nonzero">
      <path d="M12.0853119,1.99180239 C9.59891193,1.99180239 7.65011193,2.69740239 6.20531193,4.10860239 C4.72691193,5.51980239 4.02131193,7.46860239 4.02131193,9.95500239 L7.85171193,9.95500239 C7.85171193,8.54380239 8.12051193,7.43500239 8.69171193,6.66220239 C9.33011193,5.72140239 10.3717119,5.28460239 11.8501119,5.28460239 C12.9925119,5.28460239 13.8997119,5.58700239 14.5381119,6.22540239 C15.1429119,6.86380239 15.4789119,7.73740239 15.4789119,8.84620239 C15.4789119,9.68620239 15.1765119,10.4926024 14.5717119,11.2318024 L14.1685119,11.7022024 C11.9845119,13.6510024 10.6741119,15.0622024 10.2373119,15.9694024 C9.76691193,16.8766024 9.56531193,17.9854024 9.56531193,19.2622024 L9.56531193,19.7326024 L13.4293119,19.7326024 L13.4293119,19.2622024 C13.4293119,18.4558024 13.5973119,17.7502024 13.9333119,17.0782024 C14.2357119,16.4734024 14.6725119,15.9022024 15.2773119,15.3982024 C16.8901119,13.9870024 17.8645119,13.0798024 18.1669119,12.7438024 C18.9733119,11.6686024 19.4101119,10.2910024 19.4101119,8.61100239 C19.4101119,6.56140239 18.7381119,4.94860239 17.3941119,3.77260239 C16.0501119,2.56300239 14.2693119,1.99180239 12.0853119,1.99180239 Z M11.4805119,21.3790024 C10.7413119,21.3790024 10.1365119,21.6142024 9.63251193,22.0846024 C9.12851193,22.5550024 8.89331193,23.1598024 8.89331193,23.8990024 C8.89331193,24.6382024 9.12851193,25.2430024 9.63251193,25.7134024 C10.1365119,26.1838024 10.7413119,26.4526024 11.4805119,26.4526024 C12.2197119,26.4526024 12.8245119,26.2174024 13.3285119,25.7470024 C13.8325119,25.2766024 14.1013119,24.6382024 14.1013119,23.8990024 C14.1013119,23.1598024 13.8325119,22.5550024 13.3621119,22.0846024 C12.8581119,21.6142024 12.2197119,21.3790024 11.4805119,21.3790024 Z" transform="rotate(22 2.65375772 366.20184918)"/>
    </g>
  </g>
</svg>
