<svg xmlns="http://www.w3.org/2000/svg" viewBox="0 0 28 28" class="design-iconfont">
  <path d="M28,0 C35.7319865,0 42,6.2680135 42,14 C42,21.7319865 35.7319865,28 28,28 C20.2680135,28 14,21.7319865 14,14 C14,6.2680135 20.2680135,0 28,0 Z M28,20 C27.4477153,20 27,20.4477153 27,21 C27,21.5522847 27.4477153,22 28,22 C28.5522847,22 29,21.5522847 29,21 C29,20.4477153 28.5522847,20 28,20 Z M28,6 C27.4477153,6 27,6.44771525 27,7 L27,7 L27,17 L27.0067277,17.1166211 C27.0644928,17.6139598 27.4871642,18 28,18 C28.5522847,18 29,17.5522847 29,17 L29,17 L29,7 L28.9932723,6.88337887 C28.9355072,6.38604019 28.5128358,6 28,6 Z" fill="#F53F3F" fill-rule="nonzero" transform="translate(-14)"/>
</svg>
