<svg xmlns="http://www.w3.org/2000/svg" xmlns:xlink="http://www.w3.org/1999/xlink" viewBox="0 0 217 60" class="design-iconfont">
  <defs>
    <path id="p7yekcpk5__jckp168lla" d="M0 0L7.27911243 0 7.27911243 9.81355731 0 9.81355731z"/>
    <path id="p7yekcpk5__p04sbivx7c" d="M0 0L33.4692088 0 33.4692088 39.0543123 0 39.0543123z"/>
    <path id="p7yekcpk5__sf7s4l3voe" d="M0 0L14.0584213 0 14.0584213 38.1973169 0 38.1973169z"/>
    <path id="p7yekcpk5__wkn18is2hg" d="M0 0L14.1423117 0 14.1423117 28.4703508 0 28.4703508z"/>
  </defs>
  <g fill="none" fill-rule="evenodd">
    <path d="M36.5354427,0.245859797 L27.3849472,0.245859797 C26.8496748,0.245859797 26.3427926,0.493381611 26.0086171,0.917789517 L12.8947404,17.5581409 C12.0755667,18.5974951 12.0755667,20.0755031 12.8947404,21.1154508 L26.0086171,37.7552086 C26.3427926,38.1802101 26.8496748,38.4271384 27.3849472,38.4271384 L36.5354427,38.4271384 C37.1156661,38.4271384 37.4380124,37.7457114 37.0754467,37.2856888 L24.3324162,21.1154508 C23.512651,20.0755031 23.512651,18.5974951 24.3324162,17.5581409 L37.0754467,1.38730931 C37.4380124,0.927286757 37.1156661,0.245859797 36.5354427,0.245859797" fill="#EEE"/>
    <path d="M166.488567,50.5619398 C166.406354,50.731703 166.296342,50.8723808 166.161489,50.9815991 C166.02427,51.0908174 165.863984,51.1733246 165.685954,51.2249659 C165.503784,51.2789814 165.307419,51.306286 165.104548,51.306286 L163.620572,51.306286 L163.84237,49.0702796 L165.373071,49.0702796 C165.819033,49.0702796 166.142562,49.1527868 166.333013,49.3154271 C166.521097,49.4762866 166.612182,49.6881937 166.612182,49.961833 C166.612182,50.1897667 166.570188,50.3921766 166.488567,50.5619398 M166.376781,54.6778061 C166.291019,54.8416335 166.174501,54.9775628 166.031367,55.0820324 C165.884685,55.1876892 165.711387,55.2654479 165.515613,55.3135276 C165.315108,55.3633881 165.100407,55.388912 164.876244,55.388912 L163.204774,55.388912 L163.440176,53.0395323 L164.970286,53.0395323 C165.516205,53.0395323 165.916032,53.1309432 166.156757,53.30961 C166.391567,53.485309 166.505128,53.7304565 166.505128,54.0587048 C166.505128,54.3056331 166.461951,54.5139787 166.376781,54.6778061 M167.869037,51.5086959 C168.023409,51.3264676 168.163585,51.0937852 168.2872,50.8177717 C168.41259,50.5376031 168.476468,50.2022319 168.476468,49.8199679 C168.476468,49.0370392 168.216816,48.4125957 167.704611,47.9650383 C167.196546,47.5198552 166.389201,47.2942957 165.306236,47.2942957 L162.198108,47.2942957 L161.226337,57.1648958 L164.849628,57.1648958 C165.393772,57.1648958 165.887051,57.0912922 166.316452,56.9470529 C166.747627,56.8016264 167.117881,56.5920935 167.417161,56.3243901 C167.717623,56.0543123 167.950067,55.730219 168.106805,55.3598267 C168.26295,54.9900279 168.342206,54.5715558 168.342206,54.1150947 C168.342206,53.6984033 168.284243,53.3422568 168.167134,53.0561524 C168.05239,52.7742031 167.924043,52.5415207 167.783275,52.3646347 C167.654928,52.2055559 167.516526,52.0714074 167.369844,51.9639698 C167.391137,51.9503176 167.413612,51.9348845 167.440819,51.9164836 C167.572124,51.8262599 167.71644,51.6891435 167.869037,51.5086959" fill="#EEE"/>
    <g transform="translate(168.82336 50.186443)">
      <mask id="p7yekcpk5__vqnfezud5b" fill="#fff">
        <use xlink:href="#p7yekcpk5__jckp168lla"/>
      </mask>
      <path fill="#EEE" mask="url(#p7yekcpk5__vqnfezud5b)" d="M3.2583595 4.44767614L1.86487702 0 0 0 2.19077212 6.34415623 0.377352216 9.81361667 2.20023549 9.81361667 7.27911243 0 5.38643673 0z"/>
    </g>
    <path d="M204.489059,54.7457114 C204.001103,55.2965513 203.441581,55.5636612 202.775596,55.5636612 C202.184726,55.5636612 201.694405,55.3452247 201.318827,54.9142874 C200.936743,54.4768208 200.751024,53.9295424 200.751024,53.2403989 C200.751024,52.4509408 200.974005,51.8027542 201.432979,51.2584436 C201.892544,50.7200689 202.444378,50.4583012 203.121009,50.4583012 C203.742043,50.4583012 204.235322,50.6713955 204.628052,51.1094557 C205.019599,51.5403929 205.211233,52.0876714 205.211233,52.7815635 C205.211233,53.5431234 204.974648,54.1853743 204.489059,54.7457114 M207.373615,49.0491482 L205.831676,49.0491482 C205.704511,49.0491482 205.596866,49.1453078 205.581488,49.2741141 L205.550732,49.5329139 L205.519976,49.7911201 C205.508738,49.8872796 205.395769,49.9312044 205.324793,49.867098 L205.132569,49.6949605 C204.856356,49.4474387 204.581918,49.2592746 204.316352,49.1358105 C203.924213,48.9506144 203.44513,48.8574227 202.890931,48.8574227 C201.716289,48.8574227 200.738604,49.2788627 199.985674,50.1110583 C199.246347,50.9396925 198.870178,52.0182228 198.870178,53.3151896 C198.870178,54.4412061 199.19903,55.3713421 199.847272,56.07948 C200.496105,56.7888051 201.346034,57.1485131 202.373402,57.1485131 C203.022235,57.1485131 203.664562,56.9354188 204.282639,56.5163531 L204.60676,56.2967294 C204.660583,56.2599276 204.731558,56.3044459 204.723277,56.3697394 L204.673595,56.7620941 L204.661765,56.856473 C204.657625,56.8938683 204.674186,56.9199858 204.685424,56.9324509 C204.69607,56.9443224 204.719137,56.9650976 204.756399,56.9650976 L206.304845,56.9650976 C206.42846,56.9650976 206.533149,56.8713124 206.547935,56.7466611 L207.468249,49.1571793 C207.472389,49.1197839 207.455828,49.0936665 207.445182,49.081795 C207.434535,49.0693299 207.410877,49.0491482 207.373615,49.0491482" fill="#EEE"/>
    <path d="M216.662512,49.0974654 C216.651866,49.0796581 216.627616,49.0487921 216.579708,49.0487921 L214.758007,49.0487921 C214.661008,49.0487921 214.571697,49.1016205 214.523789,49.1870956 L212.085194,53.559981 L212.00239,53.7095625 C211.930232,53.8383688 211.74333,53.824123 211.69069,53.6858194 L211.629769,53.5261471 L209.989648,49.2233039 C209.949428,49.1182406 209.850063,49.0487921 209.738868,49.0487921 L208.065624,49.0487921 C208.021265,49.0487921 207.996423,49.0760966 207.985777,49.0921232 C207.975131,49.1081498 207.959753,49.1413902 207.976314,49.1829406 L210.65445,55.8410993 L210.669236,55.8779011 C210.689346,55.9283552 210.685797,55.9853386 210.659182,56.0322313 L210.639072,56.0666588 L208.710317,59.4583605 C208.686067,59.5005045 208.699671,59.5373063 208.710317,59.5557072 C208.720372,59.5735146 208.745213,59.6043806 208.793122,59.6043806 L210.604176,59.6043806 C210.700584,59.6043806 210.789303,59.5521458 210.837211,59.4672642 L216.662512,49.1948121 C216.686762,49.1526681 216.673159,49.1158663 216.662512,49.0974654" fill="#EEE"/>
    <path d="M196.60571,50.6625512 C196.191687,51.0661839 195.587805,51.2709681 194.810034,51.2709681 L193.892086,51.2709681 C193.740672,51.2709681 193.623563,51.136226 193.642489,50.9842702 L194.092,47.2779723 C194.107378,47.1503532 194.215024,47.0541936 194.341596,47.0541936 L194.894613,47.0541936 C196.464942,47.0541936 197.228518,47.6578619 197.228518,48.9008132 C197.228518,49.6665282 197.01855,50.2595121 196.60571,50.6625512 M198.854445,47.0654716 C198.569361,46.4873271 198.170716,46.0326468 197.669748,45.7144892 C197.061135,45.3215409 196.166845,45.1226925 195.012905,45.1226925 L192.544146,45.1226925 C192.417573,45.1226925 192.310519,45.218852 192.294549,45.3464712 L190.900475,56.7948003 C190.88214,56.9467561 190.999249,57.0809046 191.150072,57.0809046 L192.680773,57.0809046 C192.807938,57.0809046 192.914401,56.9847451 192.93037,56.8571259 L193.356814,53.3407728 C193.372192,53.2125601 193.479246,53.1164005 193.605819,53.1164005 L194.76804,53.1164005 C196.451338,53.1164005 197.702279,52.5691221 198.486556,51.4899982 C199.014731,50.7628658 199.282071,49.9093014 199.282071,48.9524544 C199.282071,48.2947706 199.138346,47.6602362 198.854445,47.0654716" fill="#EEE"/>
    <path d="M182.528461,45.1771829 L180.052605,45.165902 C179.933129,45.1653113 179.831398,45.2555351 179.816612,45.3766249 L178.387641,56.7816228 C178.369898,56.9252686 178.479318,57.0522942 178.622452,57.0528878 L181.097716,57.0641686 C181.217783,57.0647593 181.319514,56.9745355 181.334301,56.8534457 L181.819891,52.9761975 L180.79134,51.6709206 C180.535828,51.3468273 180.535828,50.8868048 180.79134,50.5627115 L182.37409,48.5540452 L182.76268,45.4490414 C182.781015,45.3053956 182.671003,45.1777765 182.528461,45.1771829" fill="#EEE"/>
    <path d="M189.766644,45.1699412 L186.916393,45.1699412 C186.74901,45.1699412 186.591681,45.2471063 186.487584,45.3794741 L182.402361,50.5625927 C182.147442,50.8866861 182.147442,51.3467086 182.402361,51.6708019 L186.487584,56.8545142 C186.591681,56.9868819 186.74901,57.0634534 186.916393,57.0634534 L189.766644,57.0634534 C189.947631,57.0634534 190.047588,56.8515463 189.934619,56.7079005 L185.965323,51.6708019 C185.710404,51.3467086 185.710404,50.8866861 185.965323,50.5625927 L189.934619,45.5254942 C190.047588,45.382442 189.947631,45.1699412 189.766644,45.1699412" fill="#EEE"/>
    <path d="M189.442346,12.9723986 C182.108819,12.9723986 175.856483,18.7158545 175.5921,25.8061376 C175.326534,32.8952336 181.19028,38.6838013 188.52499,38.6838013 C193.702641,38.6838013 197.484443,36.6377397 200.043104,32.5456164 C200.403896,31.9686591 200.154299,31.1993827 199.523802,30.9465187 L195.885133,29.4875052 C195.441537,29.3094319 194.929331,29.4429869 194.636558,29.8216893 C193.027784,31.9051463 190.945249,32.7604915 188.746788,32.7604915 C184.856156,32.7604915 182.103496,29.8442453 182.25491,25.8061376 C182.403958,21.8125482 185.331691,18.8505965 189.222323,18.8505965 C191.395942,18.8505965 193.314051,19.8317801 194.684466,21.8262005 C194.964228,22.2333947 195.493585,22.3853505 195.953742,22.2072773 L200.072086,20.6081795 C200.707315,20.3618448 200.96815,19.5901941 200.606767,19.0108625 C198.175862,15.1110583 194.185865,12.9723986 189.442346,12.9723986" fill="#EEE"/>
    <path d="M89.2930679,30.7353832 C87.9918534,32.1528462 86.376573,32.8419897 84.3555502,32.8419897 C82.326247,32.8419897 80.7227958,32.212204 79.4499714,30.9104885 C78.1818787,29.6449813 77.5661676,28.0025524 77.5661676,25.8882294 C77.5661676,23.7893393 78.2250553,22.0982371 79.5783185,20.7199501 C80.9303987,19.3570962 82.6000935,18.6934766 84.6820368,18.6934766 C86.6799925,18.6934766 88.2438158,19.2852733 89.4699148,20.5116044 C90.6818187,21.6791714 91.2703226,23.2402802 91.2703226,25.2833739 C91.2703226,27.5342197 90.6250384,29.3161394 89.2930679,30.7353832 M84.732311,13.0117528 C80.7742529,13.0117528 77.4248084,14.2541105 74.7768368,16.7055856 C72.1300481,19.1540927 70.7880228,22.2680002 70.7880228,25.9612394 C70.7880228,29.5749392 72.0874629,32.6075266 74.651447,34.9753072 C77.1834922,37.3140025 80.4820711,38.4999703 84.4560986,38.4999703 C88.2662913,38.4999703 91.5163704,37.2469282 94.1152507,34.7776459 C96.7413382,32.296492 98.0733087,29.1920817 98.0733087,25.5498902 C98.0733087,21.8560575 96.8075819,18.81516 94.315756,16.5162343 C91.8499545,14.1900042 88.6253083,13.0117528 84.732311,13.0117528" fill="#EEE"/>
    <path d="M114.064526,12.9303734 C112.077808,12.9303734 110.097004,13.6141746 108.161152,14.9663442 L108.250463,14.1875705 C108.291865,13.8266754 108.010921,13.5108921 107.648947,13.5108921 L102.132388,13.5108921 C101.826603,13.5108921 101.568726,13.7394195 101.531464,14.0439247 L98.6179262,37.7905859 C98.5735666,38.1526681 98.8551021,38.4720128 99.2182593,38.4720128 L104.76025,38.4720128 C105.066036,38.4720128 105.323321,38.2434855 105.361175,37.9389802 L106.767669,26.493619 C106.88123,25.5605152 107.014309,24.723571 107.162174,24.0071229 C107.302942,23.3191666 107.476831,22.7356799 107.683251,22.2584436 C108.045226,21.3651095 108.611845,20.5970202 109.376013,19.9666409 C110.295144,19.1813379 111.368054,18.799074 112.656848,18.799074 C114.641792,18.799074 115.526026,19.6093073 115.526026,21.426248 C115.526026,21.7349083 115.514197,22.0839319 115.489947,22.4733187 C115.465697,22.8597376 115.420746,23.3126373 115.355094,23.8243011 L113.646954,37.7905859 C113.602595,38.1526681 113.884721,38.4720128 114.247879,38.4720128 L119.763845,38.4720128 C120.069039,38.4720128 120.326325,38.2440791 120.364178,37.9395738 L121.94752,25.1800321 C122.150391,23.482994 122.253897,21.9996439 122.253897,20.7703449 C122.253897,18.3728854 121.505698,16.4443521 120.025863,15.0328248 C118.5271,13.6379177 116.521455,12.9303734 114.064526,12.9303734" fill="#EEE"/>
    <path d="M139.300103,12.9303734 C137.313385,12.9303734 135.332582,13.6141746 133.396138,14.9663442 L133.485448,14.1875705 C133.527442,13.8272689 133.246498,13.5108921 132.884524,13.5108921 L127.367374,13.5108921 C127.061589,13.5108921 126.804303,13.7394195 126.76645,14.0439247 L123.852912,37.7905859 C123.808552,38.1526681 124.090088,38.4720128 124.453837,38.4720128 L129.995236,38.4720128 C130.301022,38.4720128 130.558899,38.2434855 130.596161,37.9389802 L132.002655,26.493619 C132.116807,25.5605152 132.249886,24.723571 132.397751,24.0071229 C132.538519,23.3191666 132.712409,22.7356799 132.918829,22.2584436 C133.280211,21.3651095 133.847423,20.5970202 134.61159,19.9666409 C135.53013,19.1813379 136.60304,18.799074 137.892425,18.799074 C139.876778,18.799074 140.761604,19.6093073 140.761604,21.426248 C140.761604,21.7349083 140.749774,22.0839319 140.724933,22.4733187 C140.701275,22.8597376 140.655732,23.3126373 140.590671,23.8243011 L138.882531,37.7905859 C138.838172,38.1526681 139.119707,38.4720128 139.483456,38.4720128 L144.998831,38.4720128 C145.304025,38.4720128 145.561902,38.2440791 145.599756,37.9395738 L147.183097,25.1800321 C147.385968,23.482994 147.488883,21.9996439 147.488883,20.7703449 C147.488883,18.3728854 146.741276,16.4443521 145.260849,15.0328248 C143.762677,13.6379177 141.756441,12.9303734 139.300103,12.9303734" fill="#EEE"/>
    <path d="M156.483942,22.7696326 C157.471682,20.0290853 159.298706,18.6935359 162.047226,18.6935359 C164.951892,18.6935359 166.699068,20.0290853 167.370376,22.7696326 L156.483942,22.7696326 Z M162.32403,13.0118122 C158.537495,13.0118122 155.358392,14.3028432 152.873663,16.8475099 C150.37474,19.4064225 149.10783,22.6277676 149.10783,26.4219149 C149.10783,30.0641064 150.270051,33.0207159 152.561963,35.2098296 C154.844412,37.3930077 157.933614,38.4994361 161.745581,38.4994361 C164.139224,38.4994361 166.172667,38.096397 167.787356,37.3010031 C169.390216,36.5204487 170.95818,35.1427554 172.448662,33.205912 L172.882794,32.6408263 L167.653686,29.8616964 L167.346718,30.27542 C166.06443,32.0027305 164.265205,32.842049 161.845538,32.842049 C160.087124,32.842049 158.687726,32.3606577 157.570456,31.3723512 C156.834679,30.7134801 156.356187,29.9442037 156.124334,29.0449338 C156.02556,28.6602956 156.320699,28.2821867 156.716386,28.2821867 L174.223045,28.2815932 L174.255576,27.7153202 C174.307624,26.8237668 174.332465,26.1951683 174.332465,25.7915356 C174.332465,21.9398112 173.237671,18.8110643 171.081204,16.4972992 C168.945437,14.1841277 165.998778,13.0118122 162.32403,13.0118122 L162.32403,13.0118122 Z" fill="#EEE"/>
    <g transform="translate(38.22356)">
      <mask id="p7yekcpk5__60uyaalkmd" fill="#fff">
        <use xlink:href="#p7yekcpk5__p04sbivx7c"/>
      </mask>
      <path d="M29.1126359,28.9824895 C28.7133996,28.3580459 27.8723418,28.2102451 27.2862038,28.6619576 C25.5467166,30.0040363 21.9257914,32.4133674 18.3569148,32.4133674 C15.1565185,32.4133674 12.0359694,31.0166795 9.79433165,28.5818247 C7.54796218,26.141034 6.45553343,22.961833 6.71873365,19.6277082 C7.26287791,12.7457708 13.6684022,6.70968125 20.4282117,6.70968125 C23.9267045,6.70968125 27.177375,9.05787381 28.722863,10.3720544 C29.2605012,10.8297026 30.0613396,10.7537247 30.5078927,10.2058527 L33.1854374,6.92040126 C33.6071492,6.40280169 33.5515518,5.64717754 33.0671452,5.18834214 C29.6869447,1.98421084 25.417778,0.0628004986 21.0084351,-0.000118715498 C10.4904814,-0.000118715498 0.897572965,8.94865555 0.0606554318,19.5410459 C-0.346861304,24.6915178 1.30922993,29.5701312 4.72196079,33.2782098 C8.15125256,37.0035021 12.8953625,39.0543123 18.0795195,39.0543123 C22.6467825,39.0543123 27.0750522,37.3139431 31.0248298,33.973289 C31.5021389,33.5702499 31.592041,32.8644863 31.2554996,32.3373894 L29.1126359,28.9824895 Z" fill="#EEE" mask="url(#p7yekcpk5__60uyaalkmd)"/>
    </g>
    <g transform="translate(0 .23309)">
      <mask id="p7yekcpk5__x13qr6grcf" fill="#fff">
        <use xlink:href="#p7yekcpk5__sf7s4l3voe"/>
      </mask>
      <path d="M13.2998321,0.0362163761 L5.35177711,0 C4.9667359,-0.00177258337 4.6408408,0.28848681 4.59234099,0.676686489 L0.00615119601,37.2885462 C-0.0518119971,37.7503495 0.300698851,38.1587308 0.759081246,38.1611051 L8.70654478,38.1973169 C9.09158599,38.1985005 9.41748108,37.9082411 9.4659809,37.520635 L11.025664,25.0727214 L7.72294488,20.8820643 C6.90377118,19.8421165 6.90377118,18.3641086 7.72294488,17.3247544 L12.8035962,10.8773157 L14.0521707,0.908181711 C14.1101339,0.446972 13.757623,0.0379971086 13.2998321,0.0362163761" fill="#EEE" mask="url(#p7yekcpk5__x13qr6grcf)"/>
    </g>
    <g transform="translate(202.857688 10.00184)">
      <mask id="p7yekcpk5__lm8o3cmrnh" fill="#fff">
        <use xlink:href="#p7yekcpk5__wkn18is2hg"/>
      </mask>
      <path d="M13.5501408,5.04718941 L10.174672,5.04718941 C9.82452697,5.04718941 9.55068046,4.74387131 9.58557667,4.39366059 L9.95642281,0.652935241 C9.99072756,0.303318098 9.71747251,0 9.36673604,0 L4.65633941,0 C4.35232837,0 4.09740862,0.231495222 4.0672441,0.535406897 L3.67333097,4.51178251 C3.64316645,4.81569419 3.38824669,5.04718941 3.0836442,5.04718941 L1.02121915,5.04718941 C0.716025197,5.04718941 0.461105439,5.27987179 0.431532382,5.58437704 L0.00272304476,10.0320532 C-0.0303987799,10.3816703 0.242856273,10.6843948 0.592409816,10.6843948 L2.4212077,10.6843948 C2.77194417,10.6843948 3.04579068,10.9877129 3.01089448,11.3379237 L1.36781539,27.816822 C1.33291918,28.1664391 1.60735716,28.4703508 1.95750216,28.4703508 L6.66789879,28.4703508 C6.97190983,28.4703508 7.22682958,28.2388556 7.2569941,27.9349439 L8.92314017,11.2192082 C8.95389615,10.9152965 9.20822445,10.6843948 9.51282695,10.6843948 L13.1213314,10.6843948 C13.4271169,10.6843948 13.6820366,10.4517125 13.7110182,10.1466136 L14.1398276,5.6989375 C14.1735408,5.34932035 13.8996943,5.04718941 13.5501408,5.04718941" fill="#EEE" mask="url(#p7yekcpk5__lm8o3cmrnh)"/>
    </g>
  </g>
</svg>
