<?xml version="1.0" encoding="UTF-8"?>
<svg width="24px" height="24px" viewBox="0 0 24 24" version="1.1" xmlns="http://www.w3.org/2000/svg" xmlns:xlink="http://www.w3.org/1999/xlink">
    <title>1. 通用/2. 图标/3. 状态类/3. 错误</title>
    <g id="1.-通用/2.-图标/3.-状态类/3.-错误" stroke="none" stroke-width="1" fill="none" fill-rule="evenodd">
        <path d="M12,0.907663822 C18.1261281,0.907663822 23.0923362,5.87387189 23.0923362,12 C23.0923362,18.1261281 18.1261281,23.0923362 12,23.0923362 C5.87387189,23.0923362 0.907663822,18.1261281 0.907663822,12 C0.907663822,5.87387189 5.87387189,0.907663822 12,0.907663822 Z M17.1931459,6.80685408 C16.8416741,6.45538221 16.2718256,6.45538221 15.9203537,6.80685408 L15.9203537,6.80685408 L11.9992502,10.7272502 L8.07964628,6.80685408 L7.98748155,6.72630844 C7.63471618,6.45782299 7.12903662,6.48467154 6.80685408,6.80685408 C6.45538221,7.15832594 6.45538221,7.72817442 6.80685408,8.07964628 L6.80685408,8.07964628 L10.7272502,11.9992502 L6.80685408,15.9203537 L6.72630844,16.0125184 C6.45782299,16.3652838 6.48467154,16.8709634 6.80685408,17.1931459 C7.15832594,17.5446178 7.72817442,17.5446178 8.07964628,17.1931459 L8.07964628,17.1931459 L11.9992502,13.2722502 L15.9203537,17.1931459 L16.0125184,17.2736916 C16.3652838,17.542177 16.8709634,17.5153285 17.1931459,17.1931459 C17.5446178,16.8416741 17.5446178,16.2718256 17.1931459,15.9203537 L17.1931459,15.9203537 L13.2722502,11.9992502 L17.1931459,8.07964628 L17.2736916,7.98748155 C17.542177,7.63471618 17.5153285,7.12903662 17.1931459,6.80685408 Z" id="错误" fill="#D40000"></path>
    </g>
</svg>