<?xml version="1.0" encoding="UTF-8"?>
<svg xmlns="http://www.w3.org/2000/svg" xmlns:xlink="http://www.w3.org/1999/xlink" width="19px" height="19px" viewBox="0 0 19 19" version="1.1">
  <title>1. 图标/2. 基础类/搜索</title>
  <g id="-----🔨5.1-输入框-/-Input" stroke="none" stroke-width="1" fill="none" fill-rule="evenodd">
    <g id="5.1-输入框-/-Input" transform="translate(-394.000000, -1247.000000)">
      <g id="输入框搜索" transform="translate(80.000000, 1140.000000)">
        <g id="7.-输入框/2.-输入搜索/1.-常规" transform="translate(66.000000, 97.000000)">
          <g id="1.-图标/2.-基础类/搜索" transform="translate(248.000000, 10.000000)">
            <path d="M8.80638266,1.86991501 C12.5755809,1.86991501 15.6311197,4.92545387 15.6311197,8.69465208 C15.6311197,10.3921079 15.0114122,11.9448232 13.9858981,13.1388969 L15.8377152,14.9522088 C16.0597379,15.1695004 16.0635733,15.525635 15.8462817,15.7476578 C15.6487439,15.9494967 15.3364598,15.9710154 15.1145044,15.8100054 L15.0508327,15.7562244 L13.1847771,13.9300064 C11.9997302,14.9221341 10.4728046,15.5193892 8.80638266,15.5193892 C5.03718445,15.5193892 1.98164558,12.4638503 1.98164558,8.69465208 C1.98164558,4.92545387 5.03718445,1.86991501 8.80638266,1.86991501 Z M8.80638266,2.99491501 C5.65850479,2.99491501 3.10664558,5.54677422 3.10664558,8.69465208 C3.10664558,11.8425299 5.65850479,14.3943892 8.80638266,14.3943892 C11.9542605,14.3943892 14.5061197,11.8425299 14.5061197,8.69465208 C14.5061197,5.54677422 11.9542605,2.99491501 8.80638266,2.99491501 Z" id="搜索" fill="#BFBFBF"></path>
            <rect id="codesign_placeholder_name" x="-2.84217094e-14" y="1.77635684e-14" width="18" height="18"></rect>
          </g>
        </g>
      </g>
    </g>
  </g>
</svg>
